<?xml version="1.0" standalone="no"?>
<!DOCTYPE svg PUBLIC "-//W3C//DTD SVG 20010904//EN"
 "http://www.w3.org/TR/2001/REC-SVG-20010904/DTD/svg10.dtd">
<svg version="1.0" xmlns="http://www.w3.org/2000/svg"
 width="300.000000pt" height="145.000000pt" viewBox="0 0 300.000000 145.000000"
 preserveAspectRatio="xMidYMid meet">
<metadata>
Created by potrace 1.10, written by Peter Selinger 2001-2011
</metadata>
<g transform="translate(0.000000,145.000000) scale(0.100000,-0.100000)"
fill="#000000" stroke="none">
<path d="M1709 1278 c-1 -17 -2 -19 -6 -5 -5 20 -26 22 -45 4 -7 -8 -19 -12
-26 -9 -6 2 -12 -1 -12 -7 0 -6 -7 -8 -15 -5 -8 4 -15 1 -15 -5 0 -6 -7 -11
-15 -11 -8 0 -15 -7 -15 -17 0 -9 -3 -13 -7 -10 -9 10 -35 -31 -28 -43 3 -6 2
-10 -4 -10 -16 0 -32 -96 -19 -115 4 -6 9 -22 11 -35 3 -14 15 -42 27 -63 18
-30 26 -36 45 -31 13 3 33 3 45 -1 l22 -7 -23 -24 c-12 -13 -28 -24 -36 -24
-7 0 -13 -7 -13 -15 0 -8 7 -15 17 -15 9 0 13 3 10 7 -8 7 11 33 24 33 5 0 9
-9 9 -20 0 -11 -5 -20 -11 -20 -8 0 -7 -5 1 -15 7 -9 11 -16 9 -18 -2 -1 -17
-9 -33 -17 -51 -26 -71 -81 -69 -189 2 -89 1 -96 -34 -167 -41 -83 -129 -197
-146 -191 -12 4 -12 41 -5 218 2 54 -1 71 -16 88 -36 40 -85 16 -93 -46 -5
-39 -90 -203 -105 -203 -11 0 -10 69 4 180 13 109 2 152 -40 158 -34 5 -46
-10 -76 -91 -31 -82 -138 -279 -155 -285 -9 -3 -12 31 -10 128 1 121 -1 134
-20 156 -26 30 -52 31 -77 3 -16 -18 -19 -38 -20 -147 -1 -121 -2 -128 -26
-154 -14 -16 -31 -28 -37 -28 -7 0 -21 20 -32 45 -16 35 -19 62 -17 127 3 80
4 83 26 80 45 -4 16 23 -37 36 -40 10 -75 11 -140 4 -48 -5 -90 -6 -96 -1 -5
5 -15 9 -22 9 -17 0 -6 -29 25 -62 29 -32 59 -35 121 -13 23 8 41 10 41 4 0
-5 -20 -49 -44 -97 -43 -85 -91 -144 -121 -148 -16 -2 -62 52 -57 67 1 5 -2 9
-7 9 -28 0 -33 209 -7 315 2 11 5 25 5 31 2 29 86 135 128 163 51 34 116 56
140 47 12 -5 9 -14 -15 -44 -83 -105 -81 -163 9 -201 26 -12 52 -21 58 -21 19
0 12 28 -9 33 -26 7 -26 36 2 115 25 72 20 103 -25 136 -23 17 -44 21 -109 22
-68 1 -87 -2 -124 -23 -45 -25 -131 -113 -145 -148 -24 -63 -22 -54 -38 -139
-16 -79 -9 -185 16 -248 33 -87 116 -147 202 -148 37 0 49 5 80 38 20 20 43
48 52 61 l15 24 21 -35 c20 -35 74 -68 111 -68 10 0 31 11 46 25 l28 26 34
-31 c38 -33 68 -38 101 -15 24 17 64 69 67 88 4 24 50 127 57 127 4 0 10 -24
14 -52 13 -102 58 -168 101 -151 25 9 63 53 75 86 13 33 28 35 31 5 0 -13 2
-27 3 -33 2 -5 3 -15 4 -22 0 -6 13 -25 27 -42 20 -24 34 -31 62 -31 30 0 44
8 87 52 28 29 66 80 85 113 l35 60 3 -98 c2 -66 7 -99 15 -102 38 -12 87 -15
87 -5 0 5 -11 10 -24 10 -36 0 -42 19 -9 30 l28 10 3 161 c4 177 13 222 54
252 26 20 30 20 62 4 54 -25 93 -115 107 -247 6 -58 9 -133 6 -167 -6 -61 -6
-63 17 -63 19 0 25 7 30 33 6 34 -8 287 -20 345 -5 25 -3 32 10 32 9 0 16 -4
16 -10 0 -5 7 -10 15 -10 22 0 14 32 -29 116 -39 75 -78 112 -146 133 -35 11
-35 11 -35 72 l0 61 56 -5 c62 -5 149 -39 175 -68 9 -10 22 -19 27 -19 6 0 3
8 -6 18 -10 10 -17 23 -17 28 0 5 4 3 9 -5 6 -9 16 -11 27 -7 18 7 18 8 -2 24
-26 21 -94 202 -93 246 l1 31 8 -30 7 -30 4 30 c5 34 17 38 33 12 8 -13 8 -20
-1 -25 -15 -9 -29 -72 -17 -72 24 1 36 19 30 44 -4 15 -2 26 4 26 5 0 13 -12
16 -26 8 -30 -11 -78 -27 -68 -6 3 -4 -4 4 -17 8 -13 21 -42 27 -64 11 -38 14
-40 56 -43 39 -3 44 0 50 23 17 69 -16 174 -58 181 -41 6 -61 18 -70 45 -6 16
-23 36 -39 44 -31 17 -54 20 -26 4 9 -5 17 -16 17 -23 0 -11 -6 -11 -34 -2
-18 6 -41 18 -50 25 -9 7 -25 11 -36 8 -11 -3 -20 0 -20 5 0 7 -18 9 -49 5
-38 -5 -57 -14 -87 -43 -22 -21 -31 -31 -21 -24 25 18 34 4 12 -19 -12 -14
-16 -31 -13 -56 2 -19 0 -35 -4 -35 -13 0 -9 -28 7 -44 19 -19 19 -27 1 -20
-22 8 -43 -17 -38 -44 7 -37 -19 -23 -34 19 -19 51 -16 128 5 175 22 47 73 91
125 105 26 7 36 16 36 29 0 28 -20 25 -21 -2z m108 -84 c21 -9 35 -24 43 -48
6 -19 19 -43 29 -55 16 -18 37 -91 32 -113 0 -5 3 -8 8 -8 5 0 11 -6 14 -14 5
-11 -3 -14 -34 -11 -21 3 -48 9 -58 15 -11 5 -40 10 -65 10 -38 0 -51 -5 -80
-34 -32 -33 -35 -34 -50 -17 -18 20 -21 57 -6 66 6 3 10 31 10 61 0 30 7 77
16 103 23 70 54 80 141 45z m257 -106 c8 -13 18 -43 21 -68 6 -42 5 -44 -9
-26 -9 11 -16 29 -16 41 0 12 -7 30 -15 41 -8 10 -15 22 -15 27 0 15 20 6 34
-15z m-32 -65 c18 -44 17 -51 -3 -46 -10 3 -20 10 -20 17 -6 47 -5 56 3 56 4
0 14 -12 20 -27z m-312 -143 c0 -16 -4 -32 -10 -35 -6 -4 -10 10 -10 35 0 25
4 39 10 35 6 -3 10 -19 10 -35z m0 -82 c12 -7 31 -33 42 -58 11 -25 22 -47 23
-50 2 -3 -18 -5 -45 -5 -32 0 -55 -6 -67 -18 -11 -9 -22 -15 -25 -12 -2 3 -5
-1 -6 -7 0 -7 -7 -31 -15 -53 -8 -22 -17 -99 -21 -172 -4 -73 -11 -143 -16
-155 l-9 -23 -1 25 c-1 14 -1 37 0 51 1 16 -10 37 -28 57 l-29 31 19 42 c14
32 18 63 17 128 -2 99 7 128 56 178 19 20 36 48 37 62 1 14 2 33 4 41 1 8 2
20 3 25 1 6 10 -9 20 -32 11 -23 29 -48 41 -55z m-1328 -11 c-27 -20 -85 -93
-88 -112 -1 -5 -11 -30 -23 -55 -11 -25 -25 -74 -30 -110 -9 -69 2 -199 20
-232 17 -32 3 -31 -20 1 -63 88 -67 258 -8 381 37 79 151 185 169 158 4 -7 -4
-20 -20 -31z m208 -5 c0 -9 -11 -38 -25 -64 -14 -26 -25 -54 -25 -63 0 -8 -7
-15 -15 -15 -25 0 -17 48 18 106 33 56 47 66 47 36z m1257 -78 c25 -43 30 -84
10 -84 -12 0 -57 75 -57 96 0 6 -9 19 -20 29 -31 28 -24 39 12 18 18 -11 43
-37 55 -59z m-754 -144 c3 -11 4 -32 3 -47 -2 -16 -6 -65 -11 -110 -6 -69 -5
-87 9 -108 9 -14 21 -23 26 -20 6 3 7 -1 4 -9 -16 -43 -60 -11 -68 50 -8 55
-45 121 -61 106 -4 -4 -2 4 6 18 7 14 14 30 15 35 1 6 11 31 23 58 21 49 45
61 54 27z m-282 -185 c1 -100 3 -110 25 -132 31 -31 30 -34 -6 -31 -59 4 -71
32 -73 160 -2 86 2 119 12 132 26 31 40 -10 42 -129z m485 109 c2 -10 -1 -62
-5 -114 -8 -84 -6 -99 11 -134 22 -44 21 -50 -6 -30 -11 8 -16 14 -11 14 5 0
0 7 -11 16 -10 8 -13 13 -6 9 7 -3 -2 14 -19 39 -17 25 -38 46 -47 46 -13 0
-14 2 -4 9 8 4 12 11 10 14 -1 3 10 39 27 80 29 74 55 95 61 51z m-732 -10
c13 -5 16 -24 16 -100 0 -85 -8 -112 -25 -84 -3 6 -15 10 -25 10 -22 0 -20 21
4 69 20 38 20 65 1 84 -21 22 -4 34 29 21z"/>
<path d="M1758 1293 c-10 -2 -18 -11 -18 -19 0 -20 38 -17 43 4 4 16 5 16 6 0
1 -25 21 -23 21 2 0 20 -14 23 -52 13z"/>
<path d="M2310 797 c-58 -46 -130 -121 -130 -136 0 -5 6 -11 13 -13 59 -22
215 120 193 177 -8 22 -15 19 -76 -28z"/>
<path d="M1278 748 c-40 -33 -42 -88 -3 -114 33 -21 95 -23 108 -2 13 20 -6
107 -26 120 -19 12 -61 9 -79 -4z m65 -37 c5 0 7 -13 5 -28 -2 -20 -9 -28 -24
-29 -11 -1 -21 4 -22 10 0 6 -3 21 -7 32 -7 21 -1 23 48 15z"/>
<path d="M2138 606 c-59 -21 -87 -43 -119 -94 -38 -61 -53 -115 -45 -176 20
-174 229 -223 358 -85 l37 39 21 -38 c28 -49 67 -72 135 -79 77 -8 130 15 194
82 49 52 101 148 101 187 0 24 -26 34 -45 18 -9 -7 -32 -44 -52 -82 -52 -100
-120 -145 -189 -127 -27 8 -54 41 -54 69 0 4 18 6 39 3 51 -7 116 29 155 86
30 42 49 108 36 116 -5 3 -10 -11 -12 -30 -2 -19 -7 -35 -13 -34 -5 0 -9 5 -7
10 1 6 3 22 4 37 1 15 7 30 12 34 16 11 -22 45 -70 64 -38 14 -50 15 -88 4
-72 -20 -118 -68 -171 -175 -70 -144 -113 -185 -193 -185 -41 0 -64 17 -76 57
-6 20 -4 21 33 16 79 -11 191 87 191 166 0 91 -92 149 -182 117z m447 -27 c9
-14 5 -17 -29 -23 -16 -3 -32 -9 -35 -14 -3 -4 -21 -29 -39 -55 -28 -41 -33
-53 -27 -85 12 -71 12 -77 4 -87 -4 -6 -6 -20 -4 -30 2 -11 4 -24 4 -28 1 -5
5 -6 10 -3 5 3 12 -1 15 -10 3 -8 10 -13 15 -9 5 3 13 0 17 -6 4 -7 3 -9 -4
-5 -5 3 -13 0 -16 -6 -3 -9 -9 -7 -20 6 -9 11 -19 17 -22 13 -7 -7 -44 30 -44
43 0 4 -13 13 -30 20 -16 7 -30 16 -30 21 0 24 85 178 113 205 53 52 109 76
122 53z m-381 -8 c5 -8 -39 -26 -56 -23 -14 3 -67 -69 -77 -105 -14 -50 -14
-58 4 -73 11 -9 12 -17 5 -30 -17 -31 -11 -66 14 -93 20 -22 22 -26 8 -29 -25
-5 -79 54 -93 102 -14 47 -1 120 28 152 9 10 12 18 7 18 -5 0 0 7 10 15 11 8
16 15 10 15 -5 0 11 14 36 30 44 28 94 38 104 21z m36 -61 c7 -13 7 -26 1 -37
-17 -33 -68 -74 -107 -88 -36 -12 -39 -12 -42 6 -5 30 37 108 66 124 38 20 70
18 82 -5z m388 -14 c5 -38 -45 -90 -106 -111 -25 -8 -47 -14 -48 -12 -11 10
25 95 52 123 27 29 39 35 66 32 28 -3 33 -7 36 -32z"/>
</g>
</svg>
